<?xml version="1.0" encoding="utf-8"?>
<svg version="1.1" xmlns="http://www.w3.org/2000/svg" viewBox="0 0 314.8 190.1">
  <path d="M66.6,23.6C60.9,21,55,18.4,49.2,15.9c3-0.6,5.7-0.5,8.6,0c4.3,0.7,8.8,0.8,13.1,1.6
  	c0.3,0.1,0.9-0.3,1.1-0.6c1.4-2.7,2.7-5.4,4-8.2c0.3-0.6,0.4-1.2,0.7-1.8c2.6-6,4.6-7.5,10.9-6.7c4.9,0.7,9.8,1.5,14.4,3.8
  	c5.6,2.9,9.9,7.4,14.7,11.2c2,1.5,1.5,3.6,1.3,5.5c-0.5,4.5-1.2,9-2.1,13.5c-0.2,1.2-0.4,1.8,0.5,2.9c3.5,4.4,7,8.7,11.8,11.8
  	c1.6,1,2.7,2.8,4.6,4.7c-5.7,1.4-10.4,0.2-15.8-1.6c0.5,1.5,0.7,2.4,1.1,3.3c0.4,0.9,0.9,1.7,1.4,2.7c2.3-0.8,4.7-1.8,7-2.5
  	c2.9-0.9,3.9-0.3,5.9,3.1c0.1,0.1,0,0.3-0.1,0.4c3.9,0.6,5.6,3.6,7.5,6.5c0.2,0.4,1,0.8,1.2,0.7c2.8-2.2,4.8,0.4,7.1,1
  	c0.7,0.2,1.8,0.2,2.4-0.2c5-2.6,10.7-2.9,16-3.5c6.8-0.8,12.5-3.4,17.3-7.8c4.2-3.9,9.5-4.7,14.4-6.3c6.6-2.1,13.4-3.3,20.2-4.9
  	c0.5-0.1,1-0.4,1.4-0.2c5.7,2.1,10.3-2.5,15.5-2.7c1.5-0.1,3.3-0.6,4.3,0.1c2.1,1.5,4,1.1,6.2,0.6c6.6-1.4,13.2-2.9,19.9-3.9
  	c4.5-0.7,9.2-0.3,13.7,1c0.2,0,0.3,0.3,0.4,0.3c9.8,0.5,19.4,3.5,29.3,2.5c0.5,0,1.1,0,1.4-0.3c1.5-1.1,3.2-1.1,3.8,0.4
  	c0.5,1.5,0.5,3.7-0.3,5c-1.7,2.9-4.6,4.7-8.1,4.8c-5.5,0.1-11,0.1-16.5,0c-1,0-2-0.6-3.5-1.1c0.5,4.2,0.5,8.2,1.4,11.9
  	c1.2,4.7,0.3,9.1-0.6,13.5c-0.3,1.5-1.7,2.8-3.7,2.8c-3.8-0.1-7.7,0.1-11.5-0.1c-1.3-0.1-3.4-0.8-3.8-1.8
  	c-1.3-3.4-8.1-4.2-8.6-4.3c-3.1-0.1-6.2,0.7-9.2-0.8c-2.8-1.4-4.1-0.5-5.1,2.7c-0.8,2.6-1.6,5.2-2.8,7.6
  	c-1.8,3.7-2.8,4.2-6.6,3.6c-2.4-0.4-4.7-1.1-7-1.7c-3-0.7-4.1-0.3-5.5,2.3c-1.7,3.3-4.4,5.2-7.9,6.6c-6.8,2.7-13.6,4.8-20.8,6
  	c-1.6,0.3-3.3,1.5-4.5,2.7c-5.5,5.4-12.5,7.1-19.7,8.2c-3.5,0.5-7.2,0.6-10.7,1.1c-7.4,1-14.9,1.3-22.2,3
  	c-0.4,0.1-0.9,0.4-1.1,0.8c-2.1,3.2-4.4,6.4-6,9.8c-3.2,6.7-4,14.2-6.1,21.3c-2.6,8.8-5.1,17.5-7.5,26.4c-0.3,1,0.2,2.5,0.9,3.4
  	c2.3,3.4,3.1,7.1,2.7,11.2c-0.1,1.1-0.6,2.1-1,3.2c-39.7,0-79.3,0-119,0c5.5-4.3,6.9-10,6.1-16.6c-0.2-1.2,0.6-2.5,1-3.7
  	c0.7-2.5,1.9-4.9,1.9-7.4c0-8.2,1.5-16.2,2.9-24.2c0.5-3.1,1.5-6.4,0.4-10c-1-3.3-0.3-7.1,1.4-10.5c0.9-1.8,1-4,1.3-6.1
  	c1.1-8.1,0.9-16.6,5.3-24c1.4-2.3-0.4-2.8-1.1-4c3.3-4.2,7.8-5.7,13-5.5c3.8,0.1,7.4-0.2,11.5-2.7c-7.5-3.9-14.5-7.6-21.7-11.4
  	c2.2-3.5,6-4.8,9.6-5.8c4.9-1.4,10.1-2,15.1-3.2c1.5-0.4,2.9-1.4,4.2-2.3c5-3.6,9.3-8.1,14.9-10.9c1.7-0.8,1.7-2.6,1.2-3.9
  	c-1.3-3.5-1.3-6.9,0-10.5"/>
</svg>
